# xmcd CD database file
#
# Track frame offsets:
#	150
#	18954
#	35659
#	57394
#	75431
#	92223
#	111201
#	132429
#	151668
#	171196
#
# Disc length: 2556 seconds
#
# Revision: 0
# Processed by: cddbd v1.5.1PL0 Copyright (c) Steve Scherf et al.
# Submitted via: CDex 1.51
#
DISCID=7709fa0a
DTITLE=ＺＯＮＥ - Ｏ
DYEAR=2002
DGENRE=JPop
TTITLE0=証
TTITLE1=さらりーまん
TTITLE2=Ｓａｅ　Ｚｕｒｉ
TTITLE3=Ｆｏｒ　Ｔｏｍｏｒｒｏｗ
TTITLE4=ＧＯ！
TTITLE5=夢ノカケラ…（Ａｌｂｕｍ　Ｖｅｒｓｉｏｎ）
TTITLE6=＋．−．×．÷
TTITLE7=一雫
TTITLE8=ｃｏｎｆｉｄｅｎｔｉａｌｌｙ
TTITLE9=足跡
EXTD=YEAR: 2002
EXTT0=
EXTT1=
EXTT2=
EXTT3=
EXTT4=
EXTT5=
EXTT6=
EXTT7=
EXTT8=
EXTT9=
PLAYORDER=
